<svg width="69" height="72" viewBox="0 0 69 72" fill="none" xmlns="http://www.w3.org/2000/svg">
<path d="M34.4688 71.0312C29.4688 71.0312 24.875 70.0312 20.6875 68.0312C16.5625 66.0312 13 63.375 10 60.0625C7 56.8125 4.65625 53.25 2.96875 49.375C1.34375 45.4375 0.53125 41.5312 0.53125 37.6562C0.53125 32.0312 1.46875 26.9688 3.34375 22.4688C5.28125 17.9062 7.96875 14.0312 11.4062 10.8438C14.8438 7.65625 18.8438 5.21875 23.4062 3.53125C28.0312 1.78125 33.0625 0.90625 38.5 0.90625C43.125 0.90625 47.2812 1.875 50.9688 3.8125C54.6562 5.6875 57.8125 8.1875 60.4375 11.3125C63.125 14.4375 65.1562 17.9062 66.5312 21.7188C67.9688 25.5312 68.6875 29.3438 68.6875 33.1562C68.6875 37.1562 68.0938 40.9375 66.9062 44.5C65.7188 48 63.875 50.8438 61.375 53.0312C58.875 55.1562 55.625 56.2188 51.625 56.2188C48.4375 56.2188 45.75 55.4375 43.5625 53.875C41.4375 52.3125 40.375 50.5312 40.375 48.5312C40.375 48.4688 40.3125 48.4375 40.1875 48.4375C40.125 48.4375 40.0312 48.5312 39.9062 48.7188C39.4062 49.7812 38.5 50.875 37.1875 52C35.9375 53.0625 34.4375 53.9375 32.6875 54.625C30.9375 55.3125 29.0625 55.6562 27.0625 55.6562C24.875 55.6562 22.9375 55 21.25 53.6875C19.5625 52.3125 18.25 50.5625 17.3125 48.4375C16.4375 46.3125 16 44.0938 16 41.7812C16 37.3438 17.125 33.2188 19.375 29.4062C21.625 25.5938 24.75 22.5 28.75 20.125C32.75 17.75 37.375 16.5625 42.625 16.5625C43.75 16.5625 45.0938 16.625 46.6562 16.75C48.2188 16.8125 49.5 16.9375 50.5 17.125L52.0938 17.4062C51.9688 18.4062 51.8438 19.3438 51.7188 20.2188C51.5938 21.0312 51.5 21.75 51.4375 22.375L49.4688 41.5938C49.4062 42.2188 49.3438 42.75 49.2812 43.1875C49.2812 43.625 49.2812 43.9688 49.2812 44.2188C49.2188 49.2812 50.375 51.8125 52.75 51.8125C59.4375 51.8125 62.7812 46.1875 62.7812 34.9375C62.7812 29.5 61.75 24.625 59.6875 20.3125C57.625 16 54.6875 12.5938 50.875 10.0938C47.125 7.59375 42.6562 6.34375 37.4688 6.34375C31.7812 6.34375 26.6562 7.53125 22.0938 9.90625C17.5938 12.2188 14.0312 15.4688 11.4062 19.6562C8.84375 23.7812 7.5625 28.5938 7.5625 34.0938C7.5625 40.7188 8.6875 46.5 10.9375 51.4375C13.1875 56.3125 16.6875 60.0938 21.4375 62.7812C26.1875 65.4688 32.25 66.8125 39.625 66.8125C41.9375 66.8125 44.125 66.4062 46.1875 65.5938L46.375 66.4375C46.375 67.3125 45.9375 68.0312 45.0625 68.5938C44.1875 69.2188 43.0938 69.6875 41.7812 70C40.4688 70.375 39.125 70.625 37.75 70.75C36.4375 70.9375 35.3438 71.0312 34.4688 71.0312ZM29.6875 50.0312C30.75 50.0312 31.8438 49.5625 32.9688 48.625C34.0938 47.6875 35.1562 46.5312 36.1562 45.1562C37.2188 43.7188 38.0625 42.3438 38.6875 41.0312C39.375 39.7188 39.75 38.6875 39.8125 37.9375L41.2188 24.8125C41.2812 24.5625 41.3125 24.1875 41.3125 23.6875C41.3125 22.9375 41.125 22.375 40.75 22C40.375 21.5625 39.5625 21.3438 38.3125 21.3438C36.5 21.3438 34.6562 22.1875 32.7812 23.875C30.9062 25.5625 29.3438 27.9375 28.0938 31C26.9062 34 26.3125 37.5312 26.3125 41.5938C26.3125 42.6562 26.3438 43.8438 26.4062 45.1562C26.5312 46.4688 26.8438 47.625 27.3438 48.625C27.8438 49.5625 28.625 50.0312 29.6875 50.0312Z" fill="white"/>
</svg>
