<svg width="150" height="30" viewBox="0 0 150 30" fill="none" xmlns="http://www.w3.org/2000/svg">
<path d="M0.68894 1.39146C0.472742 1.21967 0.436745 0.905138 0.608539 0.68894C0.780333 0.472742 1.09486 0.436745 1.31106 0.608539L1 1L0.68894 1.39146ZM150 1L147.832 6.35104L144.282 1.79809L150 1ZM1 1L1.31106 0.608539C2.06757 1.20967 2.82703 1.80188 3.5894 2.38509L3.2856 2.78222L2.98181 3.17934C2.21452 2.59237 1.45022 1.99638 0.68894 1.39146L1 1ZM7.95498 6.21616L8.24341 5.80774C9.82611 6.92545 11.4206 8.00484 13.0263 9.04525L12.7544 9.46487L12.4826 9.88449C10.8654 8.83672 9.25995 7.74985 7.66656 6.62458L7.95498 6.21616ZM17.6821 12.5143L17.9362 12.0837C19.6029 13.0671 21.2809 14.009 22.97 14.9086L22.735 15.35L22.4999 15.7913C20.7978 14.8847 19.107 13.9357 17.428 12.9449L17.6821 12.5143ZM27.9105 17.9579L28.1252 17.5063C29.8709 18.3363 31.6275 19.1214 33.3947 19.8611L33.2017 20.3223L33.0086 20.7836C31.2266 20.0377 29.4556 19.2461 27.6958 18.4094L27.9105 17.9579ZM38.6 22.4283L38.7701 21.9582C40.5842 22.6147 42.4086 23.2236 44.2429 23.784L44.0969 24.2622L43.9508 24.7403C42.1001 24.1749 40.2596 23.5607 38.4298 22.8985L38.6 22.4283ZM49.6812 25.8109L49.8021 25.3258C51.67 25.7915 53.5474 26.2072 55.4339 26.5721L55.339 27.063L55.244 27.5539C53.3399 27.1856 51.4451 26.7661 49.5602 26.2961L49.6812 25.8109ZM61.0559 28.0093L61.1242 27.514C63.0266 27.776 64.9376 27.9866 66.8568 28.1447L66.8157 28.643L66.7747 29.1413C64.8372 28.9817 62.9081 28.7692 60.9877 28.5046L61.0559 28.0093ZM72.6021 28.9604L72.6158 28.4605C73.5753 28.4868 74.5367 28.5 75.5 28.5V29V29.5C74.5276 29.5 73.5571 29.4867 72.5884 29.4602L72.6021 28.9604ZM75.5 29V28.5C76.4633 28.5 77.4247 28.4868 78.3842 28.4605L78.3979 28.9604L78.4116 29.4602C77.443 29.4867 76.4724 29.5 75.5 29.5V29ZM84.1843 28.643L84.1432 28.1447C86.0624 27.9866 87.9734 27.776 89.8758 27.514L89.9441 28.0093L90.0123 28.5046C88.0919 28.7692 86.1628 28.9817 84.2253 29.1413L84.1843 28.643ZM95.661 27.063L95.5661 26.5721C97.4526 26.2072 99.33 25.7915 101.198 25.3258L101.319 25.8109L101.44 26.2961C99.5549 26.7661 97.6601 27.1856 95.756 27.5539L95.661 27.063ZM106.903 24.2622L106.757 23.784C108.591 23.2236 110.416 22.6147 112.23 21.9582L112.4 22.4283L112.57 22.8985C110.74 23.5607 108.9 24.1749 107.049 24.7403L106.903 24.2622ZM117.798 20.3223L117.605 19.8611C119.372 19.1214 121.129 18.3363 122.875 17.5063L123.089 17.9579L123.304 18.4094C121.544 19.2461 119.773 20.0377 117.991 20.7836L117.798 20.3223ZM128.265 15.35L128.03 14.9086C129.719 14.009 131.397 13.0671 133.064 12.0837L133.318 12.5143L133.572 12.9449C131.893 13.9357 130.202 14.8847 128.5 15.7913L128.265 15.35ZM138.246 9.46487L137.974 9.04525C139.579 8.00484 141.174 6.92544 142.757 5.80774L143.045 6.21616L143.333 6.62458C141.74 7.74984 140.135 8.83671 138.517 9.88449L138.246 9.46487ZM0.68894 1.39146C0.472742 1.21967 0.436745 0.905138 0.608539 0.68894C0.780333 0.472742 1.09486 0.436745 1.31106 0.608539L1 1L0.68894 1.39146ZM150 1L147.832 6.35104L144.282 1.79809L150 1ZM1 1L1.31106 0.608539C2.06757 1.20967 2.82703 1.80188 3.5894 2.38509L3.2856 2.78222L2.98181 3.17934C2.21452 2.59237 1.45022 1.99638 0.68894 1.39146L1 1ZM7.95498 6.21616L8.24341 5.80774C9.82611 6.92545 11.4206 8.00484 13.0263 9.04525L12.7544 9.46487L12.4826 9.88449C10.8654 8.83672 9.25995 7.74985 7.66656 6.62458L7.95498 6.21616ZM17.6821 12.5143L17.9362 12.0837C19.6029 13.0671 21.2809 14.009 22.97 14.9086L22.735 15.35L22.4999 15.7913C20.7978 14.8847 19.107 13.9357 17.428 12.9449L17.6821 12.5143ZM27.9105 17.9579L28.1252 17.5063C29.8709 18.3363 31.6275 19.1214 33.3947 19.8611L33.2017 20.3223L33.0086 20.7836C31.2266 20.0377 29.4556 19.2461 27.6958 18.4094L27.9105 17.9579ZM38.6 22.4283L38.7701 21.9582C40.5842 22.6147 42.4086 23.2236 44.2429 23.784L44.0969 24.2622L43.9508 24.7403C42.1001 24.1749 40.2596 23.5607 38.4298 22.8985L38.6 22.4283ZM49.6812 25.8109L49.8021 25.3258C51.67 25.7915 53.5474 26.2072 55.4339 26.5721L55.339 27.063L55.244 27.5539C53.3399 27.1856 51.4451 26.7661 49.5602 26.2961L49.6812 25.8109ZM61.0559 28.0093L61.1242 27.514C63.0266 27.776 64.9376 27.9866 66.8568 28.1447L66.8157 28.643L66.7747 29.1413C64.8372 28.9817 62.9081 28.7692 60.9877 28.5046L61.0559 28.0093ZM72.6021 28.9604L72.6158 28.4605C73.5753 28.4868 74.5367 28.5 75.5 28.5V29V29.5C74.5276 29.5 73.5571 29.4867 72.5884 29.4602L72.6021 28.9604ZM75.5 29V28.5C76.4633 28.5 77.4247 28.4868 78.3842 28.4605L78.3979 28.9604L78.4116 29.4602C77.443 29.4867 76.4724 29.5 75.5 29.5V29ZM84.1843 28.643L84.1432 28.1447C86.0624 27.9866 87.9734 27.776 89.8758 27.514L89.9441 28.0093L90.0123 28.5046C88.0919 28.7692 86.1628 28.9817 84.2253 29.1413L84.1843 28.643ZM95.661 27.063L95.5661 26.5721C97.4526 26.2072 99.33 25.7915 101.198 25.3258L101.319 25.8109L101.44 26.2961C99.5549 26.7661 97.6601 27.1856 95.756 27.5539L95.661 27.063ZM106.903 24.2622L106.757 23.784C108.591 23.2236 110.416 22.6147 112.23 21.9582L112.4 22.4283L112.57 22.8985C110.74 23.5607 108.9 24.1749 107.049 24.7403L106.903 24.2622ZM117.798 20.3223L117.605 19.8611C119.372 19.1214 121.129 18.3363 122.875 17.5063L123.089 17.9579L123.304 18.4094C121.544 19.2461 119.773 20.0377 117.991 20.7836L117.798 20.3223ZM128.265 15.35L128.03 14.9086C129.719 14.009 131.397 13.0671 133.064 12.0837L133.318 12.5143L133.572 12.9449C131.893 13.9357 130.202 14.8847 128.5 15.7913L128.265 15.35ZM138.246 9.46487L137.974 9.04525C139.579 8.00484 141.174 6.92544 142.757 5.80774L143.045 6.21616L143.333 6.62458C141.74 7.74984 140.135 8.83671 138.517 9.88449L138.246 9.46487Z" fill="#102D0B"/>
</svg>
