<svg width="151" height="30" viewBox="0 0 151 30" fill="none" xmlns="http://www.w3.org/2000/svg">
<path d="M0.690216 28.6075C0.47346 28.7786 0.43644 29.093 0.607528 29.3098C0.778617 29.5265 1.09303 29.5636 1.30978 29.3925L1 29L0.690216 28.6075ZM151 29L148.815 23.656L145.279 28.2205L151 29ZM1 29L1.30978 29.3925C2.07254 28.7904 2.83827 28.1973 3.60694 27.6132L3.30443 27.2151L3.00193 26.817C2.22833 27.4048 1.45775 28.0017 0.690216 28.6075L1 29ZM8.01155 23.7769L8.29866 24.1863C9.89383 23.0674 11.5009 21.987 13.1193 20.9457L12.8488 20.5252L12.5782 20.1047C10.9484 21.1534 9.33033 22.2412 7.72445 23.3675L8.01155 23.7769ZM17.8141 17.474L18.0668 17.9054C19.7458 16.9216 21.4364 15.9795 23.138 15.0796L22.9043 14.6376L22.6706 14.1956C20.9559 15.1023 19.2526 16.0516 17.5613 17.0426L17.8141 17.474ZM28.117 12.03L28.3304 12.4821C30.0881 11.6525 31.857 10.8676 33.6365 10.1283L33.4446 9.66653L33.2528 9.20479C31.4586 9.95024 29.6753 10.7415 27.9035 11.5778L28.117 12.03ZM38.8789 7.56213L39.0479 8.03269C40.8738 7.37679 42.7101 6.76852 44.5563 6.20869L44.4112 5.73021L44.2662 5.25172C42.4036 5.81649 40.5514 6.43005 38.7099 7.09157L38.8789 7.56213ZM50.0303 4.18353L50.1504 4.66889C52.0297 4.20385 53.9186 3.78876 55.8166 3.42444L55.7224 2.93341L55.6281 2.44237C53.7126 2.81005 51.8065 3.22893 49.9102 3.69817L50.0303 4.18353ZM61.473 1.98879L61.5408 2.48418C63.4543 2.22259 65.3765 2.01246 67.3069 1.85461L67.2662 1.35628L67.2254 0.857938C65.2769 1.01727 63.3367 1.22937 61.4053 1.4934L61.473 1.98879ZM73.0856 1.03956L73.0992 1.53938C74.0642 1.51316 75.0312 1.5 76 1.5V1V0.5C75.0221 0.5 74.0461 0.513282 73.072 0.539744L73.0856 1.03956ZM76 1V1.5C76.9688 1.5 77.9358 1.51316 78.9008 1.53938L78.9144 1.03956L78.928 0.539744C77.9539 0.513282 76.9779 0.5 76 0.5V1ZM84.7338 1.35628L84.6931 1.85461C86.6235 2.01246 88.5457 2.22259 90.4592 2.48418L90.527 1.98879L90.5947 1.4934C88.6633 1.22937 86.7231 1.01727 84.7746 0.857939L84.7338 1.35628ZM96.2776 2.93341L96.1834 3.42444C98.0814 3.78876 99.9703 4.20385 101.85 4.66889L101.97 4.18353L102.09 3.69817C100.194 3.22893 98.2874 2.81005 96.3719 2.44237L96.2776 2.93341ZM107.589 5.73021L107.444 6.20869C109.29 6.76852 111.126 7.37678 112.952 8.03268L113.121 7.56213L113.29 7.09157C111.449 6.43005 109.596 5.81649 107.734 5.25172L107.589 5.73021ZM118.555 9.66652L118.364 10.1283C120.143 10.8676 121.912 11.6525 123.67 12.4821L123.883 12.0299L124.096 11.5778C122.325 10.7415 120.541 9.95024 118.747 9.20479L118.555 9.66652ZM129.096 14.6376L128.862 15.0796C130.564 15.9795 132.254 16.9216 133.933 17.9054L134.186 17.474L134.439 17.0426C132.747 16.0516 131.044 15.1023 129.329 14.1956L129.096 14.6376ZM139.151 20.5252L138.881 20.9457C140.499 21.987 142.106 23.0674 143.701 24.1862L143.988 23.7769L144.276 23.3675C142.67 22.2412 141.052 21.1534 139.422 20.1047L139.151 20.5252ZM0.690216 28.6075C0.47346 28.7786 0.43644 29.093 0.607528 29.3098C0.778617 29.5265 1.09303 29.5636 1.30978 29.3925L1 29L0.690216 28.6075ZM151 29L148.815 23.656L145.279 28.2205L151 29ZM1 29L1.30978 29.3925C2.07254 28.7904 2.83827 28.1973 3.60694 27.6132L3.30443 27.2151L3.00193 26.817C2.22833 27.4048 1.45775 28.0017 0.690216 28.6075L1 29ZM8.01155 23.7769L8.29866 24.1863C9.89383 23.0674 11.5009 21.987 13.1193 20.9457L12.8488 20.5252L12.5782 20.1047C10.9484 21.1534 9.33033 22.2412 7.72445 23.3675L8.01155 23.7769ZM17.8141 17.474L18.0668 17.9054C19.7458 16.9216 21.4364 15.9795 23.138 15.0796L22.9043 14.6376L22.6706 14.1956C20.9559 15.1023 19.2526 16.0516 17.5613 17.0426L17.8141 17.474ZM28.117 12.03L28.3304 12.4821C30.0881 11.6525 31.857 10.8676 33.6365 10.1283L33.4446 9.66653L33.2528 9.20479C31.4586 9.95024 29.6753 10.7415 27.9035 11.5778L28.117 12.03ZM38.8789 7.56213L39.0479 8.03269C40.8738 7.37679 42.7101 6.76852 44.5563 6.20869L44.4112 5.73021L44.2662 5.25172C42.4036 5.81649 40.5514 6.43005 38.7099 7.09157L38.8789 7.56213ZM50.0303 4.18353L50.1504 4.66889C52.0297 4.20385 53.9186 3.78876 55.8166 3.42444L55.7224 2.93341L55.6281 2.44237C53.7126 2.81005 51.8065 3.22893 49.9102 3.69817L50.0303 4.18353ZM61.473 1.98879L61.5408 2.48418C63.4543 2.22259 65.3765 2.01246 67.3069 1.85461L67.2662 1.35628L67.2254 0.857938C65.2769 1.01727 63.3367 1.22937 61.4053 1.4934L61.473 1.98879ZM73.0856 1.03956L73.0992 1.53938C74.0642 1.51316 75.0312 1.5 76 1.5V1V0.5C75.0221 0.5 74.0461 0.513282 73.072 0.539744L73.0856 1.03956ZM76 1V1.5C76.9688 1.5 77.9358 1.51316 78.9008 1.53938L78.9144 1.03956L78.928 0.539744C77.9539 0.513282 76.9779 0.5 76 0.5V1ZM84.7338 1.35628L84.6931 1.85461C86.6235 2.01246 88.5457 2.22259 90.4592 2.48418L90.527 1.98879L90.5947 1.4934C88.6633 1.22937 86.7231 1.01727 84.7746 0.857939L84.7338 1.35628ZM96.2776 2.93341L96.1834 3.42444C98.0814 3.78876 99.9703 4.20385 101.85 4.66889L101.97 4.18353L102.09 3.69817C100.194 3.22893 98.2874 2.81005 96.3719 2.44237L96.2776 2.93341ZM107.589 5.73021L107.444 6.20869C109.29 6.76852 111.126 7.37678 112.952 8.03268L113.121 7.56213L113.29 7.09157C111.449 6.43005 109.596 5.81649 107.734 5.25172L107.589 5.73021ZM118.555 9.66652L118.364 10.1283C120.143 10.8676 121.912 11.6525 123.67 12.4821L123.883 12.0299L124.096 11.5778C122.325 10.7415 120.541 9.95024 118.747 9.20479L118.555 9.66652ZM129.096 14.6376L128.862 15.0796C130.564 15.9795 132.254 16.9216 133.933 17.9054L134.186 17.474L134.439 17.0426C132.747 16.0516 131.044 15.1023 129.329 14.1956L129.096 14.6376ZM139.151 20.5252L138.881 20.9457C140.499 21.987 142.106 23.0674 143.701 24.1862L143.988 23.7769L144.276 23.3675C142.67 22.2412 141.052 21.1534 139.422 20.1047L139.151 20.5252Z" fill="#102D0B"/>
</svg>
