<svg width="30" height="30" viewBox="0 0 30 30" fill="none" xmlns="http://www.w3.org/2000/svg">
<path d="M12.193 12.248C12.3262 12.1003 12.5125 12.0116 12.7111 12.0012C12.9097 11.9909 13.1043 12.0599 13.252 12.193L15.752 14.443C15.83 14.5133 15.8923 14.5992 15.935 14.6952C15.9777 14.7911 15.9998 14.895 15.9998 15C15.9998 15.105 15.9777 15.2089 15.935 15.3048C15.8923 15.4008 15.83 15.4867 15.752 15.557L13.252 17.807C13.1793 17.8754 13.0936 17.9285 13.0001 17.9634C12.9066 17.9982 12.807 18.014 12.7073 18.0099C12.6075 18.0057 12.5096 17.9817 12.4193 17.9393C12.329 17.8968 12.248 17.8368 12.1812 17.7626C12.1144 17.6885 12.063 17.6017 12.0302 17.5075C11.9973 17.4133 11.9836 17.3134 11.9898 17.2138C11.996 17.1142 12.022 17.0168 12.0664 16.9274C12.1107 16.8379 12.1725 16.7583 12.248 16.693L13.296 15.75H9.75C9.55109 15.75 9.36032 15.671 9.21967 15.5303C9.07902 15.3897 9 15.1989 9 15C9 14.8011 9.07902 14.6103 9.21967 14.4697C9.36032 14.329 9.55109 14.25 9.75 14.25H13.296L12.248 13.307C12.1003 13.1738 12.0116 12.9875 12.0012 12.7889C11.9909 12.5903 12.0599 12.3957 12.193 12.248ZM25 20.25C25 20.6111 24.9289 20.9687 24.7907 21.3024C24.6525 21.636 24.4499 21.9392 24.1945 22.1945C23.9392 22.4499 23.636 22.6525 23.3024 22.7907C22.9687 22.9289 22.6111 23 22.25 23H7.75C7.38886 23 7.03127 22.9289 6.69762 22.7907C6.36398 22.6525 6.06082 22.4499 5.80546 22.1945C5.5501 21.9392 5.34753 21.636 5.20933 21.3024C5.07113 20.9687 5 20.6111 5 20.25V9.75C5 9.02065 5.28973 8.32118 5.80546 7.80546C6.32118 7.28973 7.02065 7 7.75 7H22.25C22.9793 7 23.6788 7.28973 24.1945 7.80546C24.7103 8.32118 25 9.02065 25 9.75V20.25ZM18.002 21.5V8.5H7.75C7.06 8.5 6.5 9.06 6.5 9.75V20.25C6.5 20.94 7.06 21.5 7.75 21.5H18.002Z" fill="#E3EAFF"/>
</svg>
