<svg width="30" height="30" viewBox="0 0 30 30" fill="none" xmlns="http://www.w3.org/2000/svg">
<path d="M8.2 10.6H7M23 10.6H21.8M11.4 13.8H10.6C9.4688 13.8 8.9032 13.8 8.552 13.448C8.2 13.0976 8.2 12.532 8.2 11.4C8.2 10.268 8.2 9.7032 8.552 9.352C8.9024 9 9.468 9 10.6 9H11.4C12.5312 9 13.0968 9 13.448 9.352C13.8 9.7032 13.8 10.2688 13.8 11.4C13.8 12.5312 13.8 13.0968 13.448 13.448C13.0976 13.8 12.532 13.8 11.4 13.8ZM18.6 13.8H19.4C20.5312 13.8 21.0968 13.8 21.448 13.448C21.8 13.0968 21.8 12.5312 21.8 11.4C21.8 10.2688 21.8 9.7032 21.448 9.352C21.0976 9 20.532 9 19.4 9H18.6C17.4688 9 16.9032 9 16.552 9.352C16.2 9.7032 16.2 10.2688 16.2 11.4C16.2 12.5312 16.2 13.0968 16.552 13.448C16.9032 13.8 17.4688 13.8 18.6 13.8Z" stroke="#D4FFCD" stroke-width="1.5" stroke-linecap="round" stroke-linejoin="round"/>
<path d="M16.2 10.6C16.2 10.2818 16.0736 9.97654 15.8485 9.7515C15.6235 9.52645 15.3183 9.40002 15 9.40002C14.6817 9.40002 14.3765 9.52645 14.1515 9.7515C13.9264 9.97654 13.8 10.2818 13.8 10.6" stroke="#D4FFCD" stroke-width="1.5"/>
<path d="M22.2 17H10.2C9.4544 17 9.0816 17 8.788 17.1216C8.59375 17.202 8.41724 17.3199 8.26858 17.4686C8.11992 17.6172 8.00201 17.7937 7.9216 17.988C7.8 18.2816 7.8 18.6544 7.8 19.4C7.8 20.1456 7.8 20.5184 7.9216 20.812C8.00201 21.0063 8.11992 21.1828 8.26858 21.3314C8.41724 21.4801 8.59375 21.598 8.788 21.6784C9.0816 21.8 9.4544 21.8 10.2 21.8H22.2" stroke="#D4FFCD" stroke-width="1.5" stroke-linecap="round" stroke-linejoin="round"/>
<path d="M21.4 21.8C20.516 21.8 19.8 20.7256 19.8 19.4C19.8 18.0744 20.516 17 21.4 17" stroke="#D4FFCD" stroke-width="1.5" stroke-linecap="round" stroke-linejoin="round"/>
</svg>
