<svg width="30" height="30" viewBox="0 0 30 30" fill="none" xmlns="http://www.w3.org/2000/svg">
<path d="M17.4 8.6V14.2H9.536L8.6 15.136V8.6H17.4ZM18.2 7H7.8C7.58783 7 7.38434 7.08429 7.23431 7.23431C7.08429 7.38434 7 7.58783 7 7.8V19L10.2 15.8H18.2C18.4122 15.8 18.6157 15.7157 18.7657 15.5657C18.9157 15.4157 19 15.2122 19 15V7.8C19 7.58783 18.9157 7.38434 18.7657 7.23431C18.6157 7.08429 18.4122 7 18.2 7ZM22.2 10.2H20.6V17.4H10.2V19C10.2 19.2122 10.2843 19.4157 10.4343 19.5657C10.5843 19.7157 10.7878 19.8 11 19.8H19.8L23 23V11C23 10.7878 22.9157 10.5843 22.7657 10.4343C22.6157 10.2843 22.4122 10.2 22.2 10.2Z" fill="#2B303F"/>
</svg>
