<svg width="100" height="100" viewBox="0 0 100 100" fill="none" xmlns="http://www.w3.org/2000/svg">
<path d="M0 16C0 7.16345 7.16344 0 16 0H84C92.8366 0 100 7.16344 100 16V100H16C7.16345 100 0 92.8366 0 84V16Z" fill="#102D0B"/>
<path d="M56.25 31.5V47.25H34.1325L31.5 49.8825V31.5H56.25ZM58.5 27H29.25C28.6533 27 28.081 27.2371 27.659 27.659C27.2371 28.081 27 28.6533 27 29.25V60.75L36 51.75H58.5C59.0967 51.75 59.669 51.5129 60.091 51.091C60.5129 50.669 60.75 50.0967 60.75 49.5V29.25C60.75 28.6533 60.5129 28.081 60.091 27.659C59.669 27.2371 59.0967 27 58.5 27ZM69.75 36H65.25V56.25H36V60.75C36 61.3467 36.2371 61.919 36.659 62.341C37.081 62.7629 37.6533 63 38.25 63H63L72 72V38.25C72 37.6533 71.7629 37.081 71.341 36.659C70.919 36.2371 70.3467 36 69.75 36Z" fill="#D4FFCD"/>
</svg>
