<svg width="101" height="100" viewBox="0 0 101 100" fill="none" xmlns="http://www.w3.org/2000/svg">
<path d="M0.666626 16C0.666626 7.16345 7.83007 0 16.6666 0H84.6666C93.5032 0 100.667 7.16344 100.667 16V100H16.6666C7.83007 100 0.666626 92.8366 0.666626 84V16Z" fill="#102D0B"/>
<path d="M42.3026 55.9401H58.3625C63.6944 55.9401 67.9985 60.2441 67.9985 65.576V72H32.6666V65.576C32.6666 60.2441 36.9707 55.9401 42.3026 55.9401ZM42.3026 36.6681H58.3625V44.6981C58.3625 46.8278 57.5165 48.8702 56.0106 50.3761C54.5047 51.8821 52.4622 52.7281 50.3326 52.7281C48.2029 52.7281 46.1604 51.8821 44.6545 50.3761C43.1486 48.8702 42.3026 46.8278 42.3026 44.6981V36.6681ZM58.3625 36.6681C60.1291 36.6681 61.5745 38.1135 61.5745 39.8801C61.5745 41.6467 60.1291 43.0921 58.3625 43.0921V36.6681ZM42.3026 43.0921C40.536 43.0921 39.0906 41.6467 39.0906 39.8801C39.0906 38.1135 40.536 36.6681 42.3026 36.6681V43.0921Z" fill="#D4FFCD"/>
<path d="M42.6881 37.0535H41.0821C38.6731 35.0621 39.0907 32.0107 39.0907 29.4411C39.0907 26.8715 40.6967 28.606 42.3026 28.606C43.9086 28.606 45.5146 30.212 45.5146 30.212C42.6881 30.212 42.3026 27 42.3026 27H51.9386C55.4718 27 58.3626 29.8908 58.3626 33.424H59.9686C59.9686 33.424 60.7716 35.833 59.5831 37.439L42.7202 37.0535H42.6881Z" fill="#D4FFCD"/>
</svg>
