<svg width="101" height="100" viewBox="0 0 101 100" fill="none" xmlns="http://www.w3.org/2000/svg">
<path d="M0.333252 16C0.333252 7.16345 7.4967 0 16.3333 0H84.3332C93.1698 0 100.333 7.16344 100.333 16V100H16.3333C7.4967 100 0.333252 92.8366 0.333252 84V16Z" fill="#102D0B"/>
<path d="M56.5833 31.5V47.25H34.4658L31.8333 49.8825V31.5H56.5833ZM58.8333 27H29.5833C28.9865 27 28.4142 27.2371 27.9923 27.659C27.5703 28.081 27.3333 28.6533 27.3333 29.25V60.75L36.3333 51.75H58.8333C59.43 51.75 60.0023 51.5129 60.4242 51.091C60.8462 50.669 61.0833 50.0967 61.0833 49.5V29.25C61.0833 28.6533 60.8462 28.081 60.4242 27.659C60.0023 27.2371 59.43 27 58.8333 27ZM70.0833 36H65.5833V56.25H36.3333V60.75C36.3333 61.3467 36.5703 61.919 36.9923 62.341C37.4142 62.7629 37.9865 63 38.5833 63H63.3333L72.3333 72V38.25C72.3333 37.6533 72.0962 37.081 71.6742 36.659C71.2523 36.2371 70.68 36 70.0833 36Z" fill="#D4FFCD"/>
</svg>
