<svg width="100" height="100" viewBox="0 0 100 100" fill="none" xmlns="http://www.w3.org/2000/svg">
<path d="M0 16C0 7.16345 7.16344 0 16 0H84C92.8366 0 100 7.16344 100 16V100H16C7.16345 100 0 92.8366 0 84V16Z" fill="#102D0B"/>
<path d="M31.1117 39C28.3087 39 27 40.5895 27 43.0645V45.9364C27 48.5069 27.4612 49.604 29.3155 50.7667L30.7461 51.6541C31.9048 52.3543 32.0548 52.8729 32.0548 54.3743V56.9093C32.0548 57.645 31.7173 58.1 31.078 58.1C30.4367 58.1 30.0992 57.6731 30.0992 56.9093V52.9309H27V56.9374C27 59.4423 28.2806 61 31.048 61C33.9091 61 35.2178 59.3487 35.2178 56.9374V53.8183C35.2178 51.4369 34.6066 50.2106 32.846 49.0836L31.4154 48.1662C30.4086 47.5259 30.163 47.0691 30.163 45.416V43.0945C30.163 42.3568 30.5005 41.9019 31.1061 41.9019C31.7454 41.9019 32.1129 42.3643 32.1129 43.0926V47.0335H35.2178V43.0664C35.2178 40.6194 33.9091 39.0037 31.1117 39.0037M36.1946 39.307V42.3681H38.3883V60.7098H41.5513V42.3643H43.7449V39.3033L36.1946 39.307ZM45.693 39.307L43.9249 60.7005H47.0598L47.491 54.9847H49.7916L50.2228 60.7005H53.4214L51.659 39.307H45.693ZM55.0395 39.307V60.7005H58.2025V51.7514H60.1224V59.0848C60.1224 60.3054 60.6398 60.7005 60.6398 60.7005H63.8028C63.8103 60.7079 63.2929 60.3129 63.2929 59.0848V53.5206C63.2929 51.7439 62.6235 50.7685 61.0055 50.4315V50.0627C62.6179 49.8175 63.4429 48.6249 63.4429 46.6984V43.0645C63.4429 40.7112 62.0423 39.3033 59.3312 39.3033L55.0395 39.307ZM64.4516 39.307V42.3681H66.6433V60.7098H69.8063V42.3643H72V39.3033L64.4516 39.307ZM48.4604 42.2089H48.8353L49.5834 52.0828H47.7141L48.4604 42.2089ZM58.21 42.2164H59.0293C60.008 42.2164 60.2799 42.6133 60.2799 44.2009V46.8575C60.2799 48.3871 59.9424 48.8421 58.9074 48.8421H58.21V42.2164Z" fill="#D4FFCD"/>
</svg>
