<svg width="30" height="30" viewBox="0 0 30 30" fill="none" xmlns="http://www.w3.org/2000/svg">
<path d="M9.875 21.1714H12.6875V16.6C12.6875 16.341 12.7775 16.124 12.9575 15.949C13.1375 15.7741 13.36 15.6863 13.625 15.6857H17.375C17.6406 15.6857 17.8634 15.7735 18.0434 15.949C18.2234 16.1246 18.3131 16.3416 18.3125 16.6V21.1714H21.125V12.9429L15.5 8.82857L9.875 12.9429V21.1714ZM8 21.1714V12.9429C8 12.6533 8.06656 12.379 8.19969 12.12C8.33281 11.861 8.51625 11.6476 8.75 11.48L14.375 7.36571C14.7031 7.1219 15.0781 7 15.5 7C15.9219 7 16.2969 7.1219 16.625 7.36571L22.25 11.48C22.4844 11.6476 22.6681 11.861 22.8012 12.12C22.9344 12.379 23.0006 12.6533 23 12.9429V21.1714C23 21.6743 22.8162 22.1049 22.4487 22.4633C22.0812 22.8217 21.64 23.0006 21.125 23H17.375C17.1094 23 16.8869 22.9122 16.7075 22.7367C16.5281 22.5611 16.4381 22.3441 16.4375 22.0857V17.5143H14.5625V22.0857C14.5625 22.3448 14.4725 22.5621 14.2925 22.7376C14.1125 22.9131 13.89 23.0006 13.625 23H9.875C9.35937 23 8.91812 22.8211 8.55125 22.4633C8.18437 22.1055 8.00062 21.6749 8 21.1714Z" fill="#102D0B"/>
</svg>
