<svg width="46" height="45" viewBox="0 0 46 45" fill="none" xmlns="http://www.w3.org/2000/svg">
<path d="M15.3025 28.94H31.3624C36.6943 28.94 40.9984 33.2441 40.9984 38.576V45H5.6665V38.576C5.6665 33.2441 9.97057 28.94 15.3025 28.94ZM15.3025 9.66809H31.3624V17.6981C31.3624 19.8277 30.5164 21.8702 29.0105 23.3761C27.5046 24.882 25.4621 25.728 23.3324 25.728C21.2028 25.728 19.1603 24.882 17.6544 23.3761C16.1485 21.8702 15.3025 19.8277 15.3025 17.6981V9.66809ZM31.3624 9.66809C33.129 9.66809 34.5744 11.1135 34.5744 12.8801C34.5744 14.6467 33.129 16.0921 31.3624 16.0921V9.66809ZM15.3025 16.0921C13.5359 16.0921 12.0905 14.6467 12.0905 12.8801C12.0905 11.1135 13.5359 9.66809 15.3025 9.66809V16.0921Z" fill="#E3EAFF"/>
<path d="M15.6881 10.0535H14.0821C11.6731 8.06209 12.0907 5.0107 12.0907 2.44111C12.0907 -0.12848 13.6967 1.60599 15.3026 1.60599C16.9086 1.60599 18.5146 3.21199 18.5146 3.21199C15.6881 3.21199 15.3026 0 15.3026 0H24.9386C28.4718 0 31.3626 2.89079 31.3626 6.42398H32.9686C32.9686 6.42398 33.7716 8.83297 32.5831 10.439L15.7202 10.0535H15.6881Z" fill="#E3EAFF"/>
</svg>
