<svg width="45" height="45" viewBox="0 0 45 45" fill="none" xmlns="http://www.w3.org/2000/svg">
<path d="M29.25 4.5V20.25H7.1325L4.5 22.8825V4.5H29.25ZM31.5 0H2.25C1.65326 0 1.08097 0.237053 0.65901 0.65901C0.237053 1.08097 0 1.65326 0 2.25V33.75L9 24.75H31.5C32.0967 24.75 32.669 24.5129 33.091 24.091C33.5129 23.669 33.75 23.0967 33.75 22.5V2.25C33.75 1.65326 33.5129 1.08097 33.091 0.65901C32.669 0.237053 32.0967 0 31.5 0ZM42.75 9H38.25V29.25H9V33.75C9 34.3467 9.23705 34.919 9.65901 35.341C10.081 35.763 10.6533 36 11.25 36H36L45 45V11.25C45 10.6533 44.7629 10.081 44.341 9.65901C43.919 9.23705 43.3467 9 42.75 9Z" fill="#E3EAFF"/>
</svg>
