<svg width="45" height="45" viewBox="0 0 45 45" fill="none" xmlns="http://www.w3.org/2000/svg">
<path d="M4.1117 12C1.3087 12 0 13.5895 0 16.0645V18.9364C0 21.5069 0.461231 22.604 2.31553 23.7667L3.74609 24.6541C4.9048 25.3543 5.05479 25.8729 5.05479 27.3743V29.9093C5.05479 30.645 4.7173 31.1 4.07796 31.1C3.43673 31.1 3.09925 30.6731 3.09925 29.9093V25.9309H0V29.9374C0 32.4423 1.28057 34 4.04796 34C6.90909 34 8.21778 32.3487 8.21778 29.9374V26.8183C8.21778 24.4369 7.60656 23.2106 5.84601 22.0836L4.41544 21.1662C3.40861 20.5259 3.16299 20.0691 3.16299 18.416V16.0945C3.16299 15.3568 3.50048 14.9019 4.10608 14.9019C4.74543 14.9019 5.11291 15.3643 5.11291 16.0926V20.0335H8.21778V16.0664C8.21778 13.6194 6.90909 12.0037 4.1117 12.0037M9.19462 12.307V15.3681H11.3883V33.7098H14.5513V15.3643H16.7449V12.3033L9.19462 12.307ZM18.693 12.307L16.9249 33.7005H20.0598L20.491 27.9847H22.7916L23.2228 33.7005H26.4214L24.659 12.307H18.693ZM28.0395 12.307V33.7005H31.2025V24.7514H33.1224V32.0848C33.1224 33.3054 33.6398 33.7005 33.6398 33.7005H36.8028C36.8103 33.7079 36.2929 33.3129 36.2929 32.0848V26.5206C36.2929 24.7439 35.6235 23.7685 34.0055 23.4315V23.0627C35.6179 22.8175 36.4429 21.6249 36.4429 19.6984V16.0645C36.4429 13.7112 35.0423 12.3033 32.3312 12.3033L28.0395 12.307ZM37.4516 12.307V15.3681H39.6433V33.7098H42.8063V15.3643H45V12.3033L37.4516 12.307ZM21.4604 15.2089H21.8353L22.5834 25.0828H20.7141L21.4604 15.2089ZM31.2099 15.2164H32.0293C33.008 15.2164 33.2799 15.6133 33.2799 17.2009V19.8575C33.2799 21.3871 32.9424 21.8421 31.9074 21.8421H31.2099V15.2164Z" fill="#E3EAFF"/>
</svg>
